<svg xmlns="http://www.w3.org/2000/svg" viewBox="0 0 1064.27 1166.64"><defs><style>.cls-1{fill:#c6c6c6;}.cls-1,.cls-2,.cls-3,.cls-4{stroke:#000;stroke-miterlimit:10;}.cls-2{fill:#734a28;stroke-width:2px;}.cls-3{fill:#c4bfb3;}.cls-4{fill:#e0e0de;}</style></defs><title>sail_1</title><g id="Layer_2" data-name="Layer 2"><g id="Layer_1-2" data-name="Layer 1"><path class="cls-1" d="M2.44,51.37c2.41,2,27.36,7,60.26-1.28C68.53,48.62,71,45,69.78,42.88c-.82-1.44-3.35-2.75-4.32-2.33-18.55,8.15-60.66,6.88-63,5.63C.86,45.35-.68,48.74,2.44,51.37Z"/><path class="cls-1" d="M3.13,449.61c2.41,2,27.37,7,60.26-1.28,5.83-1.46,8.29-5.08,7.08-7.2-.82-1.45-3.35-2.76-4.31-2.34-18.56,8.15-60.67,6.88-63,5.64C1.55,443.59,0,447,3.13,449.61Z"/><path class="cls-1" d="M3.13,658.47c2.41,2,27.37,7,60.26-1.29,5.83-1.46,8.29-5.08,7.08-7.2-.82-1.45-3.35-2.76-4.31-2.33-18.56,8.14-60.67,6.87-63,5.63C1.55,652.44,0,655.83,3.13,658.47Z"/><path class="cls-1" d="M3.13,1133.34c2.41,2,27.37,7,60.26-1.29,5.83-1.46,8.29-5.08,7.08-7.2-.82-1.45-3.35-2.76-4.31-2.33-18.56,8.14-60.67,6.87-63,5.63C1.55,1127.31,0,1130.7,3.13,1133.34Z"/><path class="cls-2" d="M31.43,1162.28V4.34c-11.83-7.51-25.07,0-25.07,0V1162.28S16.1,1169.84,31.43,1162.28Z"/><path class="cls-3" d="M577.77,8.22C513.85,9,85,14.65,63.52,20A25.66,25.66,0,0,0,50,28c-5.87,7.6-4.16,17.75-4,18.7a26.74,26.74,0,0,0,4.24,10c3.5,6.5,49.75,299.4,5.12,367.45,0,0-18.12,15.05,1.38,37.05s12.17,151.15,3.58,162.07-18.41,33.09,0,56.51,0,420.42,0,420.42-24.41,31,0,49,517.42,16.42,517.42,16.42h486V8.22ZM75.4,1138a11.67,11.67,0,1,1,11.67-11.67A11.67,11.67,0,0,1,75.4,1138Zm0-475.48A11.67,11.67,0,1,1,87.07,650.8,11.66,11.66,0,0,1,75.4,662.47ZM75.4,454a11.67,11.67,0,1,1,11.67-11.67A11.66,11.66,0,0,1,75.4,454Zm0-399.36A11.67,11.67,0,1,1,87.07,43,11.66,11.66,0,0,1,75.4,54.62Z"/><path class="cls-4" d="M70.67,443a5.22,5.22,0,0,0,.09-.67,6.75,6.75,0,0,0-1.3-5.17c-3.45-4.42-37.17-3.33-60.8,1.64C2.58,440.11.29,445.31,1.51,448c.83,1.84,3.33,3.44,4.36,3,19.48-8.9,48.71-6.42,59.55-6.64a4.4,4.4,0,0,0,1.14-.21"/><path class="cls-4" d="M70.67,651.89a5.28,5.28,0,0,0,.09-.66,6.77,6.77,0,0,0-1.3-5.18c-3.45-4.41-37.17-3.32-60.8,1.64-6.08,1.27-8.37,6.47-7.15,9.19.83,1.84,3.33,3.44,4.36,3,19.48-8.9,48.71-6.42,59.55-6.64a4.4,4.4,0,0,0,1.14-.21"/><path class="cls-4" d="M70.67,1126.76a5.28,5.28,0,0,0,.09-.66,6.77,6.77,0,0,0-1.3-5.18c-3.45-4.42-37.17-3.32-60.8,1.64-6.08,1.27-8.37,6.47-7.15,9.19.83,1.84,3.33,3.44,4.36,3,19.48-8.9,48.71-6.42,59.55-6.64a4.4,4.4,0,0,0,1.14-.21"/><path class="cls-4" d="M70,44.8c0-.15.06-.39.09-.67A6.77,6.77,0,0,0,68.77,39C65.32,34.54,31.6,35.63,8,40.59,1.89,41.87-.4,47.07.82,49.79c.83,1.84,3.33,3.44,4.35,3,19.49-8.9,48.72-6.42,59.56-6.64a4,4,0,0,0,1.13-.22"/></g></g></svg>