<?xml version="1.0" encoding="utf-8"?>
<!-- Generator: Adobe Illustrator 27.7.0, SVG Export Plug-In . SVG Version: 6.00 Build 0)  -->
<svg version="1.1" id="Layer_1" xmlns="http://www.w3.org/2000/svg" xmlns:xlink="http://www.w3.org/1999/xlink" x="0px" y="0px"
	 viewBox="0 0 167.9 209.3" style="enable-background:new 0 0 167.9 209.3;" xml:space="preserve">
<style type="text/css">
	.st0{fill:#838484;stroke:#5E6163;stroke-miterlimit:10;}
	.st1{display:none;}
	.st2{display:inline;fill:#A39478;}
	.st3{display:inline;fill:none;stroke:#776B54;stroke-miterlimit:10;}
	.st4{display:inline;fill:none;stroke:#777777;stroke-miterlimit:10;}
</style>
<g>
	<g>
		<path class="st0" d="M76.7,41.2c0,0-0.2,16.7-0.3,17.1s-0.8,0.5-0.8,0.5H51.3l0.1,8.3h24.1c0.5,0.1,0.8,0.5,0.8,1
			c0,0.3-0.9,48.8-0.9,48.8c0.1,1.8-2.8,27.8-9.2,37.3c-6.3,9.3-21.4,12.1-24.3,11.8c0,0-22.5-1.2-26.1-19.9
			c-0.3-1.1-0.2-1.5,0.2-1.5s5.9,1.7,7,1.5s-1.6-14-14.5-26.5c-0.6-0.6-1,0.2-1,0.2s-9,15.7-6.5,29.1c0.2,0.7,0,1,1.1,0.7
			s5.2-3.3,5.8-3.4s0.6,0.2,0.7,0.9s3.2,16.6,9.8,23.8s11.9,13.5,23.2,16.4s31.8,7.1,41.7,20.5c0.9,1.3,0.9,1,0.9,1h-0.3
			c0,0,0,0.3,0.9-1c9.9-13.4,30.4-17.6,41.7-20.5s16.5-9.2,23.2-16.4s9.7-23.1,9.8-23.8s0.2-1.1,0.7-0.9s4.7,3.1,5.8,3.4
			s0.8,0,1.1-0.7c2.5-13.4-6.5-29.2-6.5-29.2s-0.4-0.8-1-0.2C146.6,132,143.9,145.8,145,146s6.6-1.4,7-1.5s0.5,0.4,0.2,1.5
			c-3.6,18.7-26.1,19.9-26.1,19.9c-3,0.3-18-2.5-24.3-11.8c-6.4-9.5-9.4-35.5-9.2-37.3c0,0-1-48.5-0.9-48.8c0-0.5,0.4-0.9,0.8-1
			h24.1l0.1-8.3H92.3c0,0-0.7,0-0.8-0.5s-0.3-17.1-0.3-17.1"/>
		<path class="st0" d="M84.1,0.5c-11.6,0-21,9.4-21,21s9.4,21,21,21s21-9.4,21-21S95.7,0.5,84.1,0.5z M84.1,34
			c-6.9,0-12.5-5.6-12.5-12.5S77.2,9,84.1,9s12.5,5.6,12.5,12.5S91,34,84.1,34z"/>
		<circle class="st0" cx="125.6" cy="63" r="9.5"/>
		<circle class="st0" cx="42.8" cy="63" r="9.5"/>
		<g class="st1">
			<path class="st2" d="M69.2,146.8c-0.2-0.1-0.5-0.2-0.7-0.3c-0.3-0.1-0.5-0.3-0.7-0.4c-1.8-1.3-17.2-14-13.5-31
				c3.6-16.3,21.5-21.8,32.8-30c10.9-8,14.8-19.2,14-29.2S88,35.3,84.2,31.6s-0.7-8.1,0-8.8s5.6-4,11.7,2.9s15.4,19,16.9,27.8
				s-1.4,25.7-11.8,34.6s-31.4,18.3-34.5,23.5c-4.6,6.2-2,21.2,6.1,24"/>
			<path class="st3" d="M84.2,31.6c0,0,13.5,3,17.8,1.6"/>
			<path class="st3" d="M93.9,41.5c0,0,12.5,2.3,14.9,1.8"/>
			<path class="st3" d="M100,51.5c0,0,10.1,7,13.1,7.5"/>
			<path class="st3" d="M100.9,61.8c0,0,8.3,13.1,9,13.3"/>
			<path class="st3" d="M97.4,73.2c1.1,4.7,2.9,9.2,5.2,13.4"/>
			<path class="st3" d="M63.1,100.7c0,0,1.8,8.3,4,10.1"/>
			<path class="st3" d="M55,112.6c0,0,5.8,7.4,9.3,8"/>
			<path class="st3" d="M54.4,126.5c0,0,9.6,2.8,11.9,2.8"/>
			<path class="st3" d="M60.7,139c3.9-0.7,7.8-1.9,11.4-3.5"/>
			<path class="st3" d="M90.1,82.6c0,0,0.6,8.9,1.9,12"/>
			<path class="st3" d="M80.2,89.5c0,0,0.6,7.9,1.9,11.1"/>
			<path class="st3" d="M71.6,94.5c0,0,1.8,9.8,2.5,10.8"/>
			<path class="st4" d="M69.2,146.8c-0.2-0.1-0.5-0.2-0.7-0.3c-0.3-0.1-0.5-0.3-0.7-0.4c-1.8-1.3-17.2-14-13.5-31
				c3.6-16.3,21.5-21.8,32.8-30c10.9-8,14.8-19.2,14-29.2S88,35.3,84.2,31.6s-0.7-8.1,0-8.8s5.6-4,11.7,2.9s15.4,19,16.9,27.8
				s-1.4,25.7-11.8,34.6s-31.4,18.3-34.5,23.5c-4.6,6.2-2,21.2,6.1,24"/>
		</g>
	</g>
</g>
</svg>
