<svg xmlns="http://www.w3.org/2000/svg" viewBox="0 0 167.92 209.28"><defs><style>.cls-1{fill:#646566;}.cls-1,.cls-2{stroke:#5e6163;}.cls-1,.cls-2,.cls-4,.cls-5{stroke-miterlimit:10;}.cls-2{fill:#838484;}.cls-3{fill:#e0e0de;}.cls-4,.cls-5{fill:none;}.cls-4{stroke:#b5b5b5;}.cls-5{stroke:#777;}</style></defs><title>anchor-dark</title><g id="Layer_2" data-name="Layer 2"><g id="Layer_3" data-name="Layer 3"><path class="cls-1" d="M76.69,41.15s-.17,16.68-.29,17.12-.79.45-.79.45H51.29L51.43,67H75.52a1.16,1.16,0,0,1,.84,1c0,.31-.92,48.82-.92,48.82.12,1.82-2.81,27.79-9.25,37.33-6.3,9.33-21.38,12.12-24.34,11.84,0,0-22.5-1.25-26.08-19.92-.31-1.1-.17-1.48.21-1.46s5.92,1.71,7,1.46-1.63-14-14.5-26.48c-.6-.62-1,.16-1,.16s-9,15.74-6.52,29.15c.24.66,0,1,1.08.69s5.22-3.28,5.78-3.44.63.19.72.94,3.17,16.65,9.83,23.81,11.92,13.5,23.17,16.42,31.75,7.08,41.67,20.5c.9,1.33.9,1,.9,1h-.26s0,.34.9-1c9.92-13.42,30.42-17.58,41.67-20.5s16.5-9.25,23.17-16.42,9.74-23.06,9.83-23.81.16-1.09.72-.94,4.72,3.1,5.78,3.44.84,0,1.08-.69c2.5-13.41-6.52-29.15-6.52-29.15s-.4-.78-1-.16C146.59,132,143.9,145.75,145,146s6.61-1.44,7-1.46.52.36.21,1.46c-3.58,18.67-26.08,19.92-26.08,19.92-3,.28-18-2.51-24.34-11.84-6.44-9.54-9.37-35.51-9.25-37.33,0,0-1-48.51-.92-48.82a1.16,1.16,0,0,1,.84-1h24.09l.14-8.26H92.31s-.66,0-.79-.45-.29-17.12-.29-17.12"/><path class="cls-2" d="M84.09.5a21,21,0,1,0,21,21A21,21,0,0,0,84.09.5Zm0,33.5a12.5,12.5,0,1,1,12.5-12.5A12.5,12.5,0,0,1,84.09,34Z"/><circle class="cls-2" cx="125.62" cy="63" r="9.49"/><circle class="cls-2" cx="42.82" cy="63" r="9.49"/><path class="cls-3" d="M69.16,146.83a6,6,0,0,1-.67-.31,5.68,5.68,0,0,1-.72-.44c-1.77-1.28-17.23-14-13.5-31,3.59-16.32,21.5-21.78,32.75-30,10.92-8,14.75-19.25,14-29.25s-13-20.5-16.8-24.25-.71-8.12,0-8.75,5.55-3.95,11.65,2.87,15.4,19,16.9,27.8S111.41,79.2,101,88.08s-31.45,18.29-34.5,23.5c-4.63,6.24-2,21.19,6.13,24"/><path class="cls-4" d="M84.22,31.58s13.49,3,17.83,1.64"/><path class="cls-4" d="M93.86,41.48s12.54,2.29,14.91,1.85"/><path class="cls-4" d="M100,51.45s10.08,7,13.12,7.51"/><path class="cls-4" d="M100.92,61.79s8.26,13.08,9,13.29"/><path class="cls-4" d="M97.42,73.22a54.11,54.11,0,0,0,5.18,13.4"/><path class="cls-4" d="M63.12,100.74s1.78,8.28,4,10.06"/><path class="cls-4" d="M55,112.59s5.83,7.37,9.28,8"/><path class="cls-4" d="M54.44,126.48s9.56,2.84,11.85,2.78"/><path class="cls-4" d="M60.74,139a45.1,45.1,0,0,0,11.42-3.53"/><path class="cls-4" d="M90.11,82.57s.55,8.94,1.94,12"/><path class="cls-4" d="M80.2,89.48s.64,7.89,1.94,11.08"/><path class="cls-4" d="M71.63,94.54s1.83,9.8,2.53,10.84"/><path class="cls-5" d="M69.16,146.83a6,6,0,0,1-.67-.31,5.68,5.68,0,0,1-.72-.44c-1.77-1.28-17.23-14-13.5-31,3.59-16.32,21.5-21.78,32.75-30,10.92-8,14.75-19.25,14-29.25s-13-20.5-16.8-24.25-.71-8.12,0-8.75,5.55-3.95,11.65,2.87,15.4,19,16.9,27.8S111.41,79.2,101,88.08s-31.45,18.29-34.5,23.5c-4.63,6.24-2,21.19,6.13,24"/></g></g></svg>